name rise31.4854peak64.571fall78.6902.mot
datacolumns 19
datarows 36
range 22.56157900000000 22.61992600000000
endheader
time	ground_force1_vx	ground_force1_vy	ground_force1_vz	ground_force1_px	ground_force1_py	ground_force1_pz	ground_force2_vx	ground_force2_vy	ground_force2_vz	ground_force2_px	ground_force2_py	ground_force2_pz	ground_torque1_x	ground_torque1_y	ground_torque1_z	ground_torque2_x	ground_torque2_y	ground_torque2_z	
22.56157900000000	57.19434000000000	761.62175500000001	62.26797800000000	0.30113300000000	0.00000000000000	0.11148900000000	0.00000000000000	0.00000000000000	0.00000000000000	0.00000000000000	0.00000000000000	0.00000000000000	0.00000000000000	23.93571500000000	0.00000000000000	0.00000000000000	0.00000000000000	0.00000000000000	
22.56325100000000	56.40303600000000	763.07121900000004	62.24279800000000	0.29966800000000	0.00000000000000	0.11153500000000	0.00000000000000	0.00000000000000	0.00000000000000	0.00000000000000	0.00000000000000	0.00000000000000	0.00000000000000	23.89921200000000	0.00000000000000	0.00000000000000	0.00000000000000	0.00000000000000	
22.56491700000000	55.62511200000000	764.44152599999995	62.21490300000000	0.29825800000000	0.00000000000000	0.11157900000000	0.00000000000000	0.00000000000000	0.00000000000000	0.00000000000000	0.00000000000000	0.00000000000000	0.00000000000000	23.86368600000000	0.00000000000000	0.00000000000000	0.00000000000000	0.00000000000000	
22.56658400000000	54.86101400000000	765.73057800000004	62.18446200000000	0.29690500000000	0.00000000000000	0.11162100000000	0.00000000000000	0.00000000000000	0.00000000000000	0.00000000000000	0.00000000000000	0.00000000000000	0.00000000000000	23.82925800000000	0.00000000000000	0.00000000000000	0.00000000000000	0.00000000000000	
22.56825300000000	54.11108900000000	766.93632600000001	62.15158300000000	0.29560800000000	0.00000000000000	0.11166100000000	0.00000000000000	0.00000000000000	0.00000000000000	0.00000000000000	0.00000000000000	0.00000000000000	0.00000000000000	23.79600200000000	0.00000000000000	0.00000000000000	0.00000000000000	0.00000000000000	
22.56992000000000	53.37559500000000	768.05678899999998	62.11631800000000	0.29436700000000	0.00000000000000	0.11169800000000	0.00000000000000	0.00000000000000	0.00000000000000	0.00000000000000	0.00000000000000	0.00000000000000	0.00000000000000	23.76395300000000	0.00000000000000	0.00000000000000	0.00000000000000	0.00000000000000	
22.57158200000000	52.65469800000000	769.09007799999995	62.07866600000000	0.29318200000000	0.00000000000000	0.11173400000000	0.00000000000000	0.00000000000000	0.00000000000000	0.00000000000000	0.00000000000000	0.00000000000000	0.00000000000000	23.73310700000000	0.00000000000000	0.00000000000000	0.00000000000000	0.00000000000000	
22.57324900000000	51.94848100000000	770.03440899999998	62.03857700000000	0.29205100000000	0.00000000000000	0.11176700000000	0.00000000000000	0.00000000000000	0.00000000000000	0.00000000000000	0.00000000000000	0.00000000000000	0.00000000000000	23.70342600000000	0.00000000000000	0.00000000000000	0.00000000000000	0.00000000000000	
22.57491600000000	51.25694500000000	770.88812700000005	61.99595900000000	0.29097400000000	0.00000000000000	0.11179800000000	0.00000000000000	0.00000000000000	0.00000000000000	0.00000000000000	0.00000000000000	0.00000000000000	0.00000000000000	23.67483500000000	0.00000000000000	0.00000000000000	0.00000000000000	0.00000000000000	
22.57658100000000	50.58001600000000	771.64971900000000	61.95067900000000	0.28994900000000	0.00000000000000	0.11182700000000	0.00000000000000	0.00000000000000	0.00000000000000	0.00000000000000	0.00000000000000	0.00000000000000	0.00000000000000	23.64723200000000	0.00000000000000	0.00000000000000	0.00000000000000	0.00000000000000	
22.57825100000000	49.91754600000000	772.31782999999996	61.90257200000000	0.28897500000000	0.00000000000000	0.11185400000000	0.00000000000000	0.00000000000000	0.00000000000000	0.00000000000000	0.00000000000000	0.00000000000000	0.00000000000000	23.62048500000000	0.00000000000000	0.00000000000000	0.00000000000000	0.00000000000000	
22.57994900000000	49.26932400000000	772.89128000000005	61.85144000000000	0.28805000000000	0.00000000000000	0.11187900000000	0.00000000000000	0.00000000000000	0.00000000000000	0.00000000000000	0.00000000000000	0.00000000000000	0.00000000000000	23.59444000000000	0.00000000000000	0.00000000000000	0.00000000000000	0.00000000000000	
22.58158300000000	48.63507200000000	773.36906999999997	61.79706500000000	0.28717200000000	0.00000000000000	0.11190300000000	0.00000000000000	0.00000000000000	0.00000000000000	0.00000000000000	0.00000000000000	0.00000000000000	0.00000000000000	23.56891900000000	0.00000000000000	0.00000000000000	0.00000000000000	0.00000000000000	
22.58324600000000	48.01446000000000	773.75040200000001	61.73920500000000	0.28634000000000	0.00000000000000	0.11192400000000	0.00000000000000	0.00000000000000	0.00000000000000	0.00000000000000	0.00000000000000	0.00000000000000	0.00000000000000	23.54372600000000	0.00000000000000	0.00000000000000	0.00000000000000	0.00000000000000	
22.58491500000000	47.40710300000000	774.03467999999998	61.67760600000000	0.28555100000000	0.00000000000000	0.11194300000000	0.00000000000000	0.00000000000000	0.00000000000000	0.00000000000000	0.00000000000000	0.00000000000000	0.00000000000000	23.51864800000000	0.00000000000000	0.00000000000000	0.00000000000000	0.00000000000000	
22.58658400000000	46.81257100000000	774.22152500000004	61.61200100000000	0.28480300000000	0.00000000000000	0.11196100000000	0.00000000000000	0.00000000000000	0.00000000000000	0.00000000000000	0.00000000000000	0.00000000000000	0.00000000000000	23.49345900000000	0.00000000000000	0.00000000000000	0.00000000000000	0.00000000000000	
22.58825000000000	46.23039100000000	774.31077900000003	61.54211900000000	0.28409200000000	0.00000000000000	0.11197700000000	0.00000000000000	0.00000000000000	0.00000000000000	0.00000000000000	0.00000000000000	0.00000000000000	0.00000000000000	23.46792300000000	0.00000000000000	0.00000000000000	0.00000000000000	0.00000000000000	
22.58993100000000	45.66005600000000	774.30250899999999	61.46768600000000	0.28341800000000	0.00000000000000	0.11199100000000	0.00000000000000	0.00000000000000	0.00000000000000	0.00000000000000	0.00000000000000	0.00000000000000	0.00000000000000	23.44179300000000	0.00000000000000	0.00000000000000	0.00000000000000	0.00000000000000	
22.59158400000000	45.10102700000000	774.19701399999997	61.38843300000000	0.28277600000000	0.00000000000000	0.11200400000000	0.00000000000000	0.00000000000000	0.00000000000000	0.00000000000000	0.00000000000000	0.00000000000000	0.00000000000000	23.41482100000000	0.00000000000000	0.00000000000000	0.00000000000000	0.00000000000000	
22.59325000000000	44.55273800000000	773.99482300000000	61.30409400000000	0.28216400000000	0.00000000000000	0.11201600000000	0.00000000000000	0.00000000000000	0.00000000000000	0.00000000000000	0.00000000000000	0.00000000000000	0.00000000000000	23.38675300000000	0.00000000000000	0.00000000000000	0.00000000000000	0.00000000000000	
22.59492000000000	44.01460500000000	773.69670099999996	61.21441700000000	0.28157900000000	0.00000000000000	0.11202600000000	0.00000000000000	0.00000000000000	0.00000000000000	0.00000000000000	0.00000000000000	0.00000000000000	0.00000000000000	23.35733400000000	0.00000000000000	0.00000000000000	0.00000000000000	0.00000000000000	
22.59658600000000	43.48602600000000	773.30364499999996	61.11916100000000	0.28101800000000	0.00000000000000	0.11203500000000	0.00000000000000	0.00000000000000	0.00000000000000	0.00000000000000	0.00000000000000	0.00000000000000	0.00000000000000	23.32631200000000	0.00000000000000	0.00000000000000	0.00000000000000	0.00000000000000	
22.59825000000000	42.96638800000000	772.81688099999997	61.01810300000000	0.28047800000000	0.00000000000000	0.11204300000000	0.00000000000000	0.00000000000000	0.00000000000000	0.00000000000000	0.00000000000000	0.00000000000000	0.00000000000000	23.29343900000000	0.00000000000000	0.00000000000000	0.00000000000000	0.00000000000000	
22.59991900000000	42.45507400000000	772.23786500000006	60.91103900000000	0.27995500000000	0.00000000000000	0.11205000000000	0.00000000000000	0.00000000000000	0.00000000000000	0.00000000000000	0.00000000000000	0.00000000000000	0.00000000000000	23.25847200000000	0.00000000000000	0.00000000000000	0.00000000000000	0.00000000000000	
22.60158600000000	41.95146300000000	771.56827599999997	60.79778900000000	0.27944700000000	0.00000000000000	0.11205600000000	0.00000000000000	0.00000000000000	0.00000000000000	0.00000000000000	0.00000000000000	0.00000000000000	0.00000000000000	23.22117700000000	0.00000000000000	0.00000000000000	0.00000000000000	0.00000000000000	
22.60324700000000	41.45493600000000	770.81000800000004	60.67819700000000	0.27895100000000	0.00000000000000	0.11206200000000	0.00000000000000	0.00000000000000	0.00000000000000	0.00000000000000	0.00000000000000	0.00000000000000	0.00000000000000	23.18132900000000	0.00000000000000	0.00000000000000	0.00000000000000	0.00000000000000	
22.60491200000000	40.96488200000000	769.96516899999995	60.55213200000000	0.27846300000000	0.00000000000000	0.11206700000000	0.00000000000000	0.00000000000000	0.00000000000000	0.00000000000000	0.00000000000000	0.00000000000000	0.00000000000000	23.13871600000000	0.00000000000000	0.00000000000000	0.00000000000000	0.00000000000000	
22.60658200000000	40.48070100000000	769.03606800000000	60.41949200000000	0.27798000000000	0.00000000000000	0.11207100000000	0.00000000000000	0.00000000000000	0.00000000000000	0.00000000000000	0.00000000000000	0.00000000000000	0.00000000000000	23.09313700000000	0.00000000000000	0.00000000000000	0.00000000000000	0.00000000000000	
22.60825000000000	40.00180300000000	768.02520900000002	60.28020600000000	0.27749900000000	0.00000000000000	0.11207500000000	0.00000000000000	0.00000000000000	0.00000000000000	0.00000000000000	0.00000000000000	0.00000000000000	0.00000000000000	23.04440800000000	0.00000000000000	0.00000000000000	0.00000000000000	0.00000000000000	
22.60992000000000	39.52761900000000	766.93528200000003	60.13423100000000	0.27701600000000	0.00000000000000	0.11207900000000	0.00000000000000	0.00000000000000	0.00000000000000	0.00000000000000	0.00000000000000	0.00000000000000	0.00000000000000	22.99235900000000	0.00000000000000	0.00000000000000	0.00000000000000	0.00000000000000	
22.61159000000000	39.05759900000000	765.76914999999997	59.98155600000000	0.27653000000000	0.00000000000000	0.11208300000000	0.00000000000000	0.00000000000000	0.00000000000000	0.00000000000000	0.00000000000000	0.00000000000000	0.00000000000000	22.93683800000000	0.00000000000000	0.00000000000000	0.00000000000000	0.00000000000000	
22.61324800000000	38.59121400000000	764.52983800000004	59.82220200000000	0.27603700000000	0.00000000000000	0.11208600000000	0.00000000000000	0.00000000000000	0.00000000000000	0.00000000000000	0.00000000000000	0.00000000000000	0.00000000000000	22.87771200000000	0.00000000000000	0.00000000000000	0.00000000000000	0.00000000000000	
22.61491300000000	38.12796200000000	763.22052699999995	59.65622000000000	0.27553300000000	0.00000000000000	0.11209000000000	0.00000000000000	0.00000000000000	0.00000000000000	0.00000000000000	0.00000000000000	0.00000000000000	0.00000000000000	22.81486500000000	0.00000000000000	0.00000000000000	0.00000000000000	0.00000000000000	
22.61657800000000	37.66736700000000	761.84453399999995	59.48369300000000	0.27501800000000	0.00000000000000	0.11209400000000	0.00000000000000	0.00000000000000	0.00000000000000	0.00000000000000	0.00000000000000	0.00000000000000	0.00000000000000	22.74820400000000	0.00000000000000	0.00000000000000	0.00000000000000	0.00000000000000	
22.61824500000000	37.20898400000000	760.40530500000000	59.30473400000000	0.27448600000000	0.00000000000000	0.11209900000000	0.00000000000000	0.00000000000000	0.00000000000000	0.00000000000000	0.00000000000000	0.00000000000000	0.00000000000000	22.67765200000000	0.00000000000000	0.00000000000000	0.00000000000000	0.00000000000000	
22.61992600000000	36.75239600000000	758.90639799999997	59.11948500000000	0.27393700000000	0.00000000000000	0.11210400000000	0.00000000000000	0.00000000000000	0.00000000000000	0.00000000000000	0.00000000000000	0.00000000000000	0.00000000000000	22.60315700000000	0.00000000000000	0.00000000000000	0.00000000000000	0.00000000000000	
